<svg width="16" height="16" viewBox="0 0 16 16" fill="none" xmlns="http://www.w3.org/2000/svg">
<path d="M2.58834 12.2153V3.53033L0.15564 1.10033L1.20681 0.0353317L3.63951 2.46533H15.0822C15.2924 2.46533 15.4701 2.53783 15.6153 2.68283C15.7605 2.82783 15.833 3.00533 15.833 3.21533C15.833 3.28533 15.823 3.35533 15.803 3.42533L14.001 9.42533C13.961 9.58533 13.8734 9.71533 13.7382 9.81533C13.6031 9.91533 13.4504 9.96533 13.2802 9.96533H4.09001V11.4653H12.3492V12.9653H3.33917C3.12894 12.9653 2.95124 12.8928 2.80608 12.7478C2.66092 12.6028 2.58834 12.4253 2.58834 12.2153ZM14.0761 3.96533H4.09001V8.46533H12.7246L14.0761 3.96533ZM3.71459 15.9653C3.40424 15.9653 3.13895 15.8553 2.91871 15.6353C2.69846 15.4153 2.58834 15.1503 2.58834 14.8403C2.58834 14.5303 2.69846 14.2653 2.91871 14.0453C3.13895 13.8253 3.40424 13.7153 3.71459 13.7153C4.02493 13.7153 4.29023 13.8253 4.51047 14.0453C4.73072 14.2653 4.84084 14.5303 4.84084 14.8403C4.84084 15.1503 4.73072 15.4153 4.51047 15.6353C4.29023 15.8553 4.02493 15.9653 3.71459 15.9653ZM12.7246 15.9653C12.4142 15.9653 12.149 15.8553 11.9287 15.6353C11.7085 15.4153 11.5983 15.1503 11.5983 14.8403C11.5983 14.5303 11.7085 14.2653 11.9287 14.0453C12.149 13.8253 12.4142 13.7153 12.7246 13.7153C13.0349 13.7153 13.3002 13.8253 13.5205 14.0453C13.7407 14.2653 13.8508 14.5303 13.8508 14.8403C13.8508 15.1503 13.7407 15.4153 13.5205 15.6353C13.3002 15.8553 13.0349 15.9653 12.7246 15.9653Z" fill="black"/>
</svg>
